<svg width="24" height="24" viewBox="0 0 24 24" fill="none" xmlns="http://www.w3.org/2000/svg">
<path fill-rule="evenodd" clip-rule="evenodd" d="M21.4375 11.75H16.4375V22H21.4375V11.75ZM14.4375 9.75V24H23.4375V9.75H14.4375Z" fill="white"/>
<path fill-rule="evenodd" clip-rule="evenodd" d="M14.0486 22H2.9375V2H14.0486V22ZM0.9375 0V24H16.0486V0H0.9375Z" fill="white"/>
<path d="M4.49316 5.3335H7.15983V8.00016H4.49316V5.3335Z" fill="white"/>
<path fill-rule="evenodd" clip-rule="evenodd" d="M6.40983 6.0835H5.24316V7.25016H6.40983V6.0835ZM4.49316 5.3335V8.00016H7.15983V5.3335H4.49316Z" fill="white"/>
<path d="M4.49316 10.6665H7.15983V13.3332H4.49316V10.6665Z" fill="white"/>
<path fill-rule="evenodd" clip-rule="evenodd" d="M6.40983 11.4165H5.24316V12.5832H6.40983V11.4165ZM4.49316 10.6665V13.3332H7.15983V10.6665H4.49316Z" fill="white"/>
<path d="M8.9375 5.3335H12.4931V8.00016H8.9375V5.3335Z" fill="white"/>
<path fill-rule="evenodd" clip-rule="evenodd" d="M11.7431 6.0835H9.6875V7.25016H11.7431V6.0835ZM8.9375 5.3335V8.00016H12.4931V5.3335H8.9375Z" fill="white"/>
<path d="M8.9375 10.6665H12.4931V13.3332H8.9375V10.6665Z" fill="white"/>
<path fill-rule="evenodd" clip-rule="evenodd" d="M11.7431 11.4165H9.6875V12.5832H11.7431V11.4165ZM8.9375 10.6665V13.3332H12.4931V10.6665H8.9375Z" fill="white"/>
<path d="M8.9375 17.7778H12.4931V23.1112H8.9375V17.7778Z" fill="white"/>
<path fill-rule="evenodd" clip-rule="evenodd" d="M11.7431 18.5278H9.6875V22.3612H11.7431V18.5278ZM8.9375 17.7778V23.1112H12.4931V17.7778H8.9375Z" fill="white"/>
</svg>
