<svg xmlns="http://www.w3.org/2000/svg" width="16" height="16" viewBox="0 0 16 16" fill="none">
<path d="M3.33333 14.6666C2.96667 14.6666 2.65278 14.5361 2.39167 14.275C2.13056 14.0139 2 13.7 2 13.3333V3.99998C2 3.63331 2.13056 3.31942 2.39167 3.05831C2.65278 2.7972 2.96667 2.66665 3.33333 2.66665H4V1.33331H5.33333V2.66665H10.6667V1.33331H12V2.66665H12.6667C13.0333 2.66665 13.3472 2.7972 13.6083 3.05831C13.8694 3.31942 14 3.63331 14 3.99998V13.3333C14 13.7 13.8694 14.0139 13.6083 14.275C13.3472 14.5361 13.0333 14.6666 12.6667 14.6666H3.33333ZM3.33333 13.3333H12.6667V6.66665H3.33333V13.3333ZM3.33333 5.33331H12.6667V3.99998H3.33333V5.33331Z" fill="#506484"/>
</svg>