<svg xmlns="http://www.w3.org/2000/svg" width="16" height="16" viewBox="0 0 16 16" fill="none">
<path d="M7 11H13C13.5523 11 14 10.5523 14 10V6V3C14 2.68524 13.8518 2.38885 13.6 2.2L12.2667 1.2C12.0936 1.07018 11.883 1 11.6667 1H10H7C6.44772 1 6 1.44772 6 2V10C6 10.5523 6.44772 11 7 11Z" stroke="#506484" stroke-width="1.5"/>
<path d="M10 13.1818V14C10 14.5523 9.55228 15 9 15H3C2.44772 15 2 14.5523 2 14V6C2 5.44772 2.44772 5 3 5H4" stroke="#506484" stroke-width="1.5"/>
<path d="M12 11.1818V12C12 12.5523 11.5523 13 11 13H5C4.44772 13 4 12.5523 4 12V4C4 3.44772 4.44772 3 5 3H6" stroke="#506484" stroke-width="1.5"/>
<path d="M8 7L9.5 8L11.5 5" stroke="#506484"/>
<mask id="path-5-inside-1_853_741" fill="white">
<path d="M11.5 2.5V1L14 3H12C11.7239 3 11.5 2.77614 11.5 2.5Z"/>
</mask>
<path d="M11.5 2.5V1L14 3H12C11.7239 3 11.5 2.77614 11.5 2.5Z" fill="#506484"/>
<path d="M11.5 1L12.437 -0.171303L10 -2.12094V1H11.5ZM14 3V4.5H18.2762L14.937 1.8287L14 3ZM10 1V2.5H13V1H10ZM12 4.5H14V1.5H12V4.5ZM10.563 2.1713L13.063 4.1713L14.937 1.8287L12.437 -0.171303L10.563 2.1713ZM10 2.5C10 3.60457 10.8954 4.5 12 4.5V1.5C12.5523 1.5 13 1.94772 13 2.5H10Z" fill="#506484" mask="url(#path-5-inside-1_853_741)"/>
</svg>