<svg xmlns="http://www.w3.org/2000/svg" width="16" height="16" viewBox="0 0 16 16">
<path d="M6 12C5.63333 12 5.31944 11.8695 5.05833 11.6083C4.79722 11.3472 4.66667 11.0333 4.66667 10.6667V2.66668C4.66667 2.30001 4.79722 1.98612 5.05833 1.72501C5.31944 1.4639 5.63333 1.33334 6 1.33334H12C12.3667 1.33334 12.6806 1.4639 12.9417 1.72501C13.2028 1.98612 13.3333 2.30001 13.3333 2.66668V10.6667C13.3333 11.0333 13.2028 11.3472 12.9417 11.6083C12.6806 11.8695 12.3667 12 12 12H6ZM6 10.6667H12V2.66668H6V10.6667ZM3.33333 14.6667C2.96667 14.6667 2.65278 14.5361 2.39167 14.275C2.13056 14.0139 2 13.7 2 13.3333V4.00001H3.33333V13.3333H10.6667V14.6667H3.33333Z"/>
</svg>