<svg xmlns="http://www.w3.org/2000/svg" width="52" height="12" viewBox="0 0 52 12" fill="none">
<rect width="52" height="12" rx="6" fill="#011E4C"/>
<path d="M7.46387 9H6.08398L6.09277 8.05078H7.46387C7.83594 8.05078 8.14795 7.96875 8.3999 7.80469C8.65186 7.6377 8.84229 7.39893 8.97119 7.08838C9.1001 6.7749 9.16455 6.3999 9.16455 5.96338V5.63379C9.16455 5.29688 9.12793 4.99951 9.05469 4.7417C8.98145 4.48389 8.87305 4.26709 8.72949 4.09131C8.58887 3.91553 8.41455 3.78223 8.20654 3.69141C7.99854 3.60059 7.75977 3.55518 7.49023 3.55518H6.05762V2.60156H7.49023C7.91797 2.60156 8.30762 2.67334 8.65918 2.81689C9.01367 2.96045 9.31982 3.16699 9.57764 3.43652C9.83838 3.70313 10.0376 4.02246 10.1753 4.39453C10.3159 4.7666 10.3862 5.18262 10.3862 5.64258V5.96338C10.3862 6.42041 10.3159 6.83643 10.1753 7.21143C10.0376 7.5835 9.83838 7.90283 9.57764 8.16943C9.31982 8.43604 9.01221 8.64111 8.65479 8.78467C8.29736 8.92822 7.90039 9 7.46387 9ZM6.76074 2.60156V9H5.55225V2.60156H6.76074ZM12.7021 2.60156V9H11.4937V2.60156H12.7021ZM17.356 7.33887C17.356 7.21582 17.3369 7.10596 17.2988 7.00928C17.2637 6.90967 17.1978 6.82031 17.1011 6.74121C17.0073 6.65918 16.874 6.58008 16.7012 6.50391C16.5312 6.4248 16.3115 6.34277 16.042 6.25781C15.7432 6.16406 15.4648 6.05859 15.207 5.94141C14.9492 5.82422 14.7222 5.68799 14.5259 5.53271C14.3325 5.37744 14.1816 5.19873 14.0732 4.99658C13.9648 4.7915 13.9106 4.5542 13.9106 4.28467C13.9106 4.021 13.9663 3.78076 14.0776 3.56396C14.1919 3.34717 14.353 3.16113 14.561 3.00586C14.769 2.84766 15.0137 2.72607 15.2949 2.64111C15.5791 2.55615 15.8926 2.51367 16.2354 2.51367C16.71 2.51367 17.1201 2.6001 17.4658 2.77295C17.8145 2.9458 18.084 3.18018 18.2744 3.47607C18.4648 3.77197 18.5601 4.10449 18.5601 4.47363H17.356C17.356 4.27441 17.3135 4.09863 17.2285 3.94629C17.1465 3.79395 17.0205 3.67383 16.8506 3.58594C16.6836 3.49805 16.4727 3.4541 16.2178 3.4541C15.9717 3.4541 15.7666 3.49072 15.6025 3.56396C15.4414 3.63721 15.3198 3.73682 15.2378 3.86279C15.1587 3.98877 15.1191 4.12939 15.1191 4.28467C15.1191 4.40186 15.147 4.50732 15.2026 4.60107C15.2583 4.69189 15.3418 4.77832 15.4531 4.86035C15.5645 4.93945 15.7021 5.01416 15.8662 5.08447C16.0332 5.15186 16.2266 5.21924 16.4463 5.28662C16.7979 5.39209 17.1055 5.50928 17.3691 5.63818C17.6357 5.76709 17.8569 5.91357 18.0327 6.07764C18.2114 6.2417 18.3447 6.42627 18.4326 6.63135C18.5234 6.83643 18.5688 7.06934 18.5688 7.33008C18.5688 7.60547 18.5146 7.85156 18.4062 8.06836C18.2979 8.28516 18.1426 8.46973 17.9404 8.62207C17.7383 8.77441 17.4951 8.89014 17.2109 8.96924C16.9297 9.04834 16.6147 9.08789 16.2661 9.08789C15.9556 9.08789 15.6479 9.04688 15.3433 8.96484C15.0415 8.87988 14.7676 8.75391 14.5215 8.58691C14.2754 8.41699 14.0791 8.20312 13.9326 7.94531C13.7861 7.68457 13.7129 7.37988 13.7129 7.03125H14.9258C14.9258 7.2334 14.958 7.40625 15.0225 7.5498C15.0898 7.69043 15.1836 7.80615 15.3037 7.89697C15.4268 7.98486 15.5703 8.04932 15.7344 8.09033C15.8984 8.13135 16.0757 8.15186 16.2661 8.15186C16.5122 8.15186 16.7144 8.11816 16.8726 8.05078C17.0337 7.98047 17.1538 7.88379 17.2329 7.76074C17.3149 7.6377 17.356 7.49707 17.356 7.33887ZM21.9614 6.6665H20.3135V5.71729H21.9614C22.231 5.71729 22.4492 5.67334 22.6162 5.58545C22.7861 5.49463 22.9106 5.37158 22.9897 5.21631C23.0688 5.05811 23.1084 4.87793 23.1084 4.67578C23.1084 4.47949 23.0688 4.29639 22.9897 4.12646C22.9106 3.95654 22.7861 3.81885 22.6162 3.71338C22.4492 3.60791 22.231 3.55518 21.9614 3.55518H20.709V9H19.5005V2.60156H21.9614C22.4595 2.60156 22.8843 2.69092 23.2358 2.86963C23.5903 3.04541 23.8599 3.29004 24.0444 3.60352C24.2319 3.91406 24.3257 4.26855 24.3257 4.66699C24.3257 5.08008 24.2319 5.43604 24.0444 5.73486C23.8599 6.03369 23.5903 6.26367 23.2358 6.4248C22.8843 6.58594 22.4595 6.6665 21.9614 6.6665ZM28.8345 2.60156H30.043V6.85107C30.043 7.34033 29.9375 7.75195 29.7266 8.08594C29.5156 8.41699 29.2285 8.66748 28.8652 8.8374C28.502 9.00439 28.0889 9.08789 27.626 9.08789C27.1572 9.08789 26.7397 9.00439 26.3735 8.8374C26.0073 8.66748 25.7202 8.41699 25.5122 8.08594C25.3042 7.75195 25.2002 7.34033 25.2002 6.85107V2.60156H26.4087V6.85107C26.4087 7.1499 26.4585 7.39453 26.5581 7.58496C26.6577 7.77246 26.7983 7.91162 26.98 8.00244C27.1616 8.09326 27.377 8.13867 27.626 8.13867C27.8779 8.13867 28.0933 8.09326 28.272 8.00244C28.4536 7.91162 28.5928 7.77246 28.6895 7.58496C28.7861 7.39453 28.8345 7.1499 28.8345 6.85107V2.60156ZM33.9365 2.60156V9H32.7324V2.60156H33.9365ZM35.9229 2.60156V3.55518H30.7681V2.60156H35.9229ZM40.9678 8.05078V9H37.5664V8.05078H40.9678ZM37.9355 2.60156V9H36.7271V2.60156H37.9355ZM40.5239 5.24268V6.16992H37.5664V5.24268H40.5239ZM40.9546 2.60156V3.55518H37.5664V2.60156H40.9546ZM43.7188 9H42.3389L42.3477 8.05078H43.7188C44.0908 8.05078 44.4028 7.96875 44.6548 7.80469C44.9067 7.6377 45.0972 7.39893 45.2261 7.08838C45.355 6.7749 45.4194 6.3999 45.4194 5.96338V5.63379C45.4194 5.29688 45.3828 4.99951 45.3096 4.7417C45.2363 4.48389 45.1279 4.26709 44.9844 4.09131C44.8438 3.91553 44.6694 3.78223 44.4614 3.69141C44.2534 3.60059 44.0146 3.55518 43.7451 3.55518H42.3125V2.60156H43.7451C44.1729 2.60156 44.5625 2.67334 44.9141 2.81689C45.2686 2.96045 45.5747 3.16699 45.8325 3.43652C46.0933 3.70313 46.2925 4.02246 46.4302 4.39453C46.5708 4.7666 46.6411 5.18262 46.6411 5.64258V5.96338C46.6411 6.42041 46.5708 6.83643 46.4302 7.21143C46.2925 7.5835 46.0933 7.90283 45.8325 8.16943C45.5747 8.43604 45.2671 8.64111 44.9097 8.78467C44.5522 8.92822 44.1553 9 43.7188 9ZM43.0156 2.60156V9H41.8071V2.60156H43.0156Z" fill="white"/>
</svg>