<svg xmlns="http://www.w3.org/2000/svg" width="91" height="18" viewBox="0 0 91 18" fill="none">
<rect width="91" height="18" rx="6" fill="#011E4C"/>
<path d="M25.7148 5.60156V12H24.5063V5.60156H25.7148ZM27.5474 5.60156H28.5933L30.3423 10.418L32.0869 5.60156H33.1372L30.7598 12H29.9204L27.5474 5.60156ZM27.02 5.60156H28.0439L28.2285 10.0269V12H27.02V5.60156ZM32.6362 5.60156H33.6646V12H32.4561V10.0269L32.6362 5.60156ZM37.356 9.6665H35.708V8.71729H37.356C37.6255 8.71729 37.8438 8.67334 38.0107 8.58545C38.1807 8.49463 38.3052 8.37158 38.3843 8.21631C38.4634 8.05811 38.5029 7.87793 38.5029 7.67578C38.5029 7.47949 38.4634 7.29639 38.3843 7.12646C38.3052 6.95654 38.1807 6.81885 38.0107 6.71338C37.8438 6.60791 37.6255 6.55518 37.356 6.55518H36.1035V12H34.895V5.60156H37.356C37.854 5.60156 38.2788 5.69092 38.6304 5.86963C38.9849 6.04541 39.2544 6.29004 39.439 6.60352C39.6265 6.91406 39.7202 7.26855 39.7202 7.66699C39.7202 8.08008 39.6265 8.43604 39.439 8.73486C39.2544 9.03369 38.9849 9.26367 38.6304 9.4248C38.2788 9.58594 37.854 9.6665 37.356 9.6665ZM45.8506 8.63818V8.96777C45.8506 9.45117 45.7861 9.88623 45.6572 10.2729C45.5283 10.6567 45.3452 10.9834 45.1079 11.2529C44.8706 11.5225 44.5879 11.729 44.2598 11.8726C43.9316 12.0161 43.5669 12.0879 43.1655 12.0879C42.77 12.0879 42.4067 12.0161 42.0757 11.8726C41.7476 11.729 41.4634 11.5225 41.2231 11.2529C40.9829 10.9834 40.7969 10.6567 40.665 10.2729C40.5332 9.88623 40.4673 9.45117 40.4673 8.96777V8.63818C40.4673 8.15186 40.5332 7.7168 40.665 7.33301C40.7969 6.94922 40.9814 6.62256 41.2188 6.35303C41.4561 6.08057 41.7388 5.87256 42.0669 5.729C42.3979 5.58545 42.7612 5.51367 43.1567 5.51367C43.5581 5.51367 43.9229 5.58545 44.251 5.729C44.5791 5.87256 44.8618 6.08057 45.0991 6.35303C45.3394 6.62256 45.5239 6.94922 45.6528 7.33301C45.7847 7.7168 45.8506 8.15186 45.8506 8.63818ZM44.6289 8.96777V8.62939C44.6289 8.28076 44.5967 7.97461 44.5322 7.71094C44.4678 7.44434 44.3726 7.22021 44.2466 7.03857C44.1206 6.85693 43.9653 6.7207 43.7808 6.62988C43.5962 6.53613 43.3882 6.48926 43.1567 6.48926C42.9224 6.48926 42.7144 6.53613 42.5327 6.62988C42.354 6.7207 42.2017 6.85693 42.0757 7.03857C41.9497 7.22021 41.853 7.44434 41.7856 7.71094C41.7212 7.97461 41.689 8.28076 41.689 8.62939V8.96777C41.689 9.31348 41.7212 9.61963 41.7856 9.88623C41.853 10.1528 41.9497 10.3784 42.0757 10.563C42.2046 10.7446 42.3599 10.8823 42.5415 10.9761C42.7231 11.0698 42.9312 11.1167 43.1655 11.1167C43.3999 11.1167 43.6079 11.0698 43.7896 10.9761C43.9712 10.8823 44.1235 10.7446 44.2466 10.563C44.3726 10.3784 44.4678 10.1528 44.5322 9.88623C44.5967 9.61963 44.6289 9.31348 44.6289 8.96777ZM46.8745 5.60156H49.1992C49.6855 5.60156 50.103 5.6748 50.4517 5.82129C50.8003 5.96777 51.0684 6.18457 51.2559 6.47168C51.4434 6.75879 51.5371 7.11182 51.5371 7.53076C51.5371 7.86182 51.4785 8.14893 51.3613 8.39209C51.2441 8.63525 51.0786 8.83887 50.8647 9.00293C50.6538 9.16699 50.4048 9.2959 50.1177 9.38965L49.7397 9.58301H47.6875L47.6787 8.62939H49.2124C49.4614 8.62939 49.668 8.58545 49.832 8.49756C49.9961 8.40967 50.1191 8.28809 50.2012 8.13281C50.2861 7.97754 50.3286 7.80029 50.3286 7.60107C50.3286 7.38721 50.2876 7.20264 50.2056 7.04736C50.1235 6.88916 49.999 6.76758 49.832 6.68262C49.665 6.59766 49.4541 6.55518 49.1992 6.55518H48.083V12H46.8745V5.60156ZM50.4868 12L49.0059 9.13477L50.2847 9.13037L51.7832 11.9385V12H50.4868ZM55.0615 5.60156V12H53.8574V5.60156H55.0615ZM57.0479 5.60156V6.55518H51.8931V5.60156H57.0479ZM62.0928 11.0508V12H58.6914V11.0508H62.0928ZM59.0605 5.60156V12H57.8521V5.60156H59.0605ZM61.6489 8.24268V9.16992H58.6914V8.24268H61.6489ZM62.0796 5.60156V6.55518H58.6914V5.60156H62.0796ZM64.8438 12H63.4639L63.4727 11.0508H64.8438C65.2158 11.0508 65.5278 10.9688 65.7798 10.8047C66.0317 10.6377 66.2222 10.3989 66.3511 10.0884C66.48 9.7749 66.5444 9.3999 66.5444 8.96338V8.63379C66.5444 8.29688 66.5078 7.99951 66.4346 7.7417C66.3613 7.48389 66.2529 7.26709 66.1094 7.09131C65.9688 6.91553 65.7944 6.78223 65.5864 6.69141C65.3784 6.60059 65.1396 6.55518 64.8701 6.55518H63.4375V5.60156H64.8701C65.2979 5.60156 65.6875 5.67334 66.0391 5.81689C66.3936 5.96045 66.6997 6.16699 66.9575 6.43652C67.2183 6.70312 67.4175 7.02246 67.5552 7.39453C67.6958 7.7666 67.7661 8.18262 67.7661 8.64258V8.96338C67.7661 9.42041 67.6958 9.83643 67.5552 10.2114C67.4175 10.5835 67.2183 10.9028 66.9575 11.1694C66.6997 11.436 66.3921 11.6411 66.0347 11.7847C65.6772 11.9282 65.2803 12 64.8438 12ZM64.1406 5.60156V12H62.9321V5.60156H64.1406Z" fill="white"/>
</svg>