<svg xmlns="http://www.w3.org/2000/svg" width="32" height="9" viewBox="0 0 32 9" fill="none">
<g clip-path="url(#clip0_959_29)">
<path d="M1.62394 0.0878196C0.655426 0.1563 0.293458 0.508486 0.0195353 1.61396V6.59347C0.0880159 7.08262 -0.146775 7.60112 0.166279 8.06092H1.93699C1.93699 6.22172 1.93699 4.38253 1.93699 2.54334C1.93699 2.28898 1.80003 1.88788 2.26961 1.94658C2.42614 2.39659 2.74898 2.739 3.0816 3.07162C4.02076 4.03034 4.87187 5.05755 5.80125 6.01628C6.54476 6.77935 7.11217 7.79678 8.28612 8.06092H9.46986C9.82204 7.90439 10.2134 7.85547 10.5068 7.5522C11.0938 6.97501 11.2895 6.27064 11.2993 5.49779C11.3188 3.9423 11.2993 2.38681 11.2993 0.82154C11.2993 0.528052 11.2797 0.234564 11.084 -0.0100098H9.16658C8.92201 0.25413 8.98071 0.58675 8.97093 0.899804C8.97093 2.14224 8.97093 3.39445 8.97093 4.63689C8.97093 4.98907 9.1568 5.52713 8.82418 5.65431C8.45243 5.79127 8.19807 5.28256 7.9535 4.99886C6.74042 3.59011 5.40994 2.2792 4.19685 0.870455C3.80553 0.42044 3.35552 0.0389049 2.70984 0.0780367H1.62394V0.0878196Z" fill="white"/>
<path d="M32 3.35555C32 2.68053 31.775 2.08377 31.3739 1.53592C30.7086 0.616325 29.8282 0.0782635 28.6836 0H20.7007C20.1137 0.136961 19.83 0.596759 19.5952 1.08591C19.0963 2.09355 18.5093 3.05228 18.0104 4.05992C17.7071 4.66646 17.3745 5.26322 16.9832 5.80128C16.7484 5.74259 16.6995 5.56649 16.6212 5.41975C15.907 4.10884 15.1929 2.8077 14.4787 1.50657C14.1852 0.978294 13.9896 0.381535 13.4613 0.00978294H11.3971C11.2014 0.264139 11.3678 0.479364 11.4852 0.675023C11.671 0.988077 11.8471 1.31091 12.0134 1.63375C12.9037 3.34577 13.8428 5.01865 14.7429 6.73066C15.0951 7.40569 15.5353 8.00245 16.3962 7.99266H17.4821C17.4821 7.99266 17.4919 7.99266 17.5017 7.99266C18.2452 8.01223 18.656 7.572 18.9887 6.97524C19.7126 5.64476 20.4757 4.33384 21.1409 2.97401C21.454 2.33812 21.8942 2.08377 22.5986 2.11312C23.528 2.15225 24.4671 2.11312 25.4063 2.1229C26.2965 2.1229 27.177 2.07398 28.0575 2.14246C29.1434 2.22073 29.926 3.07184 29.8966 4.0697C29.8673 5.09691 29.0847 5.89911 27.9988 5.92846C26.8639 5.96759 25.7389 5.92846 24.6041 5.92846C24.1149 5.92846 23.8801 5.71324 23.8801 5.22409C23.8801 4.61755 23.8899 4.00122 23.8801 3.39468C23.8508 2.55335 23.6747 2.41639 22.7062 2.41639C21.7475 2.41639 21.5616 2.56313 21.5518 3.41425C21.5322 4.7056 21.5518 5.99694 21.5518 7.29807C21.5518 7.572 21.5616 7.83614 21.767 8.05136H28.7129C30.7771 7.66004 31.9119 6.50566 32.0195 4.69581V3.35555H32Z" fill="white"/>
</g>
<defs>
<clipPath id="clip0_959_29">
<rect width="32" height="8.06114" fill="white"/>
</clipPath>
</defs>
</svg>