<svg xmlns="http://www.w3.org/2000/svg" width="30" height="8" viewBox="0 0 30 8" fill="none">
<g clip-path="url(#clip0_989_41)">
<path d="M5.52669 5.44023C4.78675 5.7362 3.66383 5.61661 3.06653 4.99233C3.07898 4.97879 3.09445 4.97089 3.11256 4.96826C3.14992 4.96901 3.18086 4.98594 3.2118 5.00399C3.39141 5.08823 3.52385 5.25408 3.72685 5.2977C3.87099 5.31989 3.98758 5.41729 4.13021 5.44399C4.29963 5.47483 4.47056 5.49326 4.64262 5.5004C4.7494 5.49363 4.85731 5.49476 4.96259 5.46994C5.03428 5.4628 5.1071 5.46994 5.17691 5.44587C5.23049 5.43271 5.2852 5.42406 5.33803 5.40751C5.37576 5.39811 5.41387 5.39435 5.45236 5.39924C5.48216 5.40413 5.50858 5.41541 5.52707 5.44061L5.52669 5.44023Z" fill="#D73941"/>
<path d="M2.99369 4.92543C2.37525 4.38087 2.35865 3.45611 2.8088 2.93262C2.84653 2.97286 2.82804 3.0146 2.81257 3.05634C2.79484 3.09658 2.77522 3.13607 2.75635 3.17594C2.7273 3.23235 2.70164 3.29026 2.68202 3.35081C2.60429 3.63888 2.62957 3.92883 2.66428 4.21879C2.66806 4.29776 2.68994 4.37072 2.74164 4.43315C2.75182 4.44669 2.7605 4.46135 2.7688 4.47602C2.80804 4.55913 2.85785 4.63585 2.91407 4.70881C2.9503 4.75695 3.00237 4.79418 3.0201 4.8551C3.02312 4.88331 3.01784 4.90813 2.99331 4.9258L2.99369 4.92543Z" fill="#D83F40"/>
<path d="M5.64934 2.2914C5.65877 2.28802 5.66632 2.29027 5.67274 2.2978C5.71877 2.32863 5.77688 2.32675 5.82555 2.35195C5.87045 2.37527 5.87196 2.40046 5.83423 2.43168C5.60708 2.43807 5.37767 2.46552 5.16221 2.36098C5.13542 2.32111 5.10826 2.28162 5.06449 2.25718C5.0094 2.22559 4.94525 2.24326 4.88828 2.22559C4.84639 2.21243 4.78413 2.2113 4.81092 2.13684C4.90827 2.08757 5.01242 2.12029 5.11316 2.11164C5.13316 2.11164 5.15278 2.1139 5.1724 2.11728C5.26221 2.15263 5.35427 2.18046 5.45087 2.18949C5.53199 2.19438 5.59274 2.23838 5.64896 2.29103L5.64934 2.2914Z" fill="#DC252D"/>
<path d="M5.52671 5.4403C5.49954 5.43917 5.47199 5.43767 5.44483 5.43654C5.43502 5.39216 5.46935 5.37787 5.49803 5.35944C5.54369 5.3365 5.58632 5.30792 5.63387 5.28836C5.89233 5.18758 6.08515 4.9954 6.29268 4.82316C6.32362 4.80361 6.35493 4.78405 6.39267 4.80699C6.41229 4.83219 6.4104 4.85663 6.39078 4.88108C6.15986 5.15448 5.87045 5.33838 5.52671 5.4403Z" fill="#D7373C"/>
<path d="M6.73227 3.29895C6.93075 3.81906 6.86358 4.2993 6.51229 4.73668C6.49607 4.72991 6.4855 4.71825 6.4806 4.70132C6.47645 4.62273 6.52512 4.56067 6.54814 4.49072C6.55908 4.46778 6.5738 4.4471 6.59002 4.42754C6.68737 4.29667 6.67379 4.13007 6.73454 3.98754C6.76774 3.86757 6.76208 3.7476 6.73642 3.62764C6.71227 3.53362 6.68586 3.4396 6.69907 3.34032C6.70586 3.32339 6.7168 3.30948 6.73227 3.29895Z" fill="#D4494F"/>
<path d="M5.18411 2.14967C5.17128 2.14891 5.15845 2.14816 5.14562 2.14741C4.90376 2.08197 4.66566 2.19329 4.42493 2.16283C4.34607 2.16471 4.26608 2.15343 4.18835 2.17674C4.14382 2.18803 4.09817 2.19179 4.05251 2.19705C4.00119 2.20269 3.95101 2.22375 3.89781 2.21097C3.8812 2.20457 3.86875 2.19329 3.86121 2.17712C3.91554 2.13011 3.98421 2.11356 4.05138 2.10529C4.54416 2.04437 5.0362 2.003 5.51691 2.18126C5.57426 2.20269 5.64331 2.21021 5.64973 2.29182C5.57728 2.28392 5.52936 2.20344 5.44748 2.223C5.36221 2.19066 5.27127 2.17862 5.18486 2.15004L5.18411 2.14967Z" fill="#D45358"/>
<path d="M6.73229 3.29886C6.7289 3.31503 6.72588 3.33083 6.72248 3.347C6.65381 3.3485 6.65192 3.28344 6.6206 3.24734C6.56514 3.14392 6.47005 3.06532 6.43119 2.95175C6.40817 2.87879 6.35836 2.82689 6.2961 2.78515C6.25535 2.75393 6.21536 2.72197 6.21762 2.6633C6.22177 2.646 6.23196 2.63397 6.24856 2.6272C6.49005 2.79417 6.6406 3.02583 6.73229 3.29886Z" fill="#D3434A"/>
<path d="M2.7749 3.04888C2.78622 3.01014 2.79754 2.97141 2.80924 2.93305L2.80697 2.9323C2.86056 2.84693 2.96206 2.79879 2.99224 2.69537C3.02922 2.66115 3.06582 2.62693 3.1028 2.59308C3.12695 2.58067 3.15147 2.57465 3.17826 2.58368C3.22392 2.70101 3.09638 2.73674 3.06695 2.81872C3.05299 2.83978 3.0379 2.85971 3.02243 2.87965C2.98281 2.9338 2.94809 2.99209 2.89451 3.03534C2.85716 3.05979 2.81943 3.08385 2.7749 3.04888Z" fill="#DC3142"/>
<path d="M3.25782 2.47573C3.44083 2.33996 3.63817 2.23353 3.86079 2.17712C3.86154 2.18427 3.86343 2.19141 3.86607 2.19818C3.82079 2.32116 3.68948 2.32379 3.59893 2.38284C3.54157 2.42007 3.47592 2.44414 3.4197 2.48475C3.40574 2.49491 3.39064 2.50356 3.37517 2.51183C3.33518 2.52762 3.29556 2.55056 3.25216 2.52161C3.24349 2.50506 3.24499 2.49002 3.25782 2.4761V2.47573Z" fill="#DA4148"/>
<path d="M5.94813 2.40531C6.06586 2.4557 6.16472 2.53129 6.24848 2.62719C6.24132 2.63057 6.2349 2.63471 6.22886 2.6396C6.05643 2.65915 5.94361 2.58056 5.8938 2.40606C5.91153 2.3929 5.92964 2.39252 5.94813 2.40568V2.40531Z" fill="#D4353F"/>
<path d="M5.94818 2.40531C5.9312 2.40756 5.91384 2.4102 5.89686 2.41245C5.89082 2.41584 5.88441 2.41885 5.87837 2.42223C5.87271 2.41809 5.86705 2.41396 5.86139 2.4102C5.81121 2.35153 5.71574 2.36808 5.67273 2.29775C5.7863 2.27932 5.8712 2.33235 5.94818 2.40531Z" fill="#D43D43"/>
<path d="M2.99215 2.69531C2.99215 2.82205 2.89178 2.87131 2.80688 2.93224C2.83518 2.82731 2.92423 2.7694 2.99215 2.69531Z" fill="#D54E57"/>
<path d="M2.99366 4.92543C2.99517 4.89722 2.9963 4.86864 2.99781 4.84044C3.10346 4.83743 3.1246 4.89986 3.1129 4.98748C3.09743 4.98936 3.08196 4.99086 3.06649 4.99275C3.02989 4.98334 3.00498 4.96191 2.99329 4.9258L2.99366 4.92543Z" fill="#DF2E3D"/>
<path d="M3.25787 2.47571C3.25901 2.49113 3.26052 2.50617 3.26165 2.52159C3.25335 2.56333 3.22807 2.58815 3.18543 2.5953C3.15788 2.59455 3.13034 2.59379 3.10242 2.59304C3.14656 2.54415 3.1892 2.49301 3.25787 2.47571Z" fill="#D54E57"/>
<path d="M6.39041 4.88139C6.39041 4.85545 6.38966 4.82987 6.38928 4.80392C6.39117 4.79603 6.39306 4.78813 6.39456 4.77985C6.41758 4.743 6.4455 4.71517 6.49418 4.72232C6.50022 4.7272 6.50625 4.73209 6.51191 4.73661C6.49267 4.80242 6.44852 4.84792 6.39004 4.88139H6.39041Z" fill="#D4494F"/>
<path d="M3.11288 4.98748C3.07816 4.93596 3.06609 4.86639 2.99779 4.84044C2.94799 4.81524 2.91063 4.77801 2.88535 4.72837C2.85781 4.67158 2.84385 4.61178 2.84649 4.5486C2.85781 4.41134 2.85252 4.26994 2.81366 4.14207C2.71329 3.80925 2.76763 3.4783 2.79291 3.14585C2.79781 3.0838 2.86271 3.05973 2.88497 3.00859C2.92271 2.95895 2.96044 2.90893 2.99817 2.85929C3.09137 2.8732 3.18721 2.91795 3.2706 2.83334C3.33399 2.7254 3.23626 2.57009 3.37399 2.48434H3.37436C3.57623 2.45275 3.80904 2.64718 3.83885 2.86117C3.87092 3.09095 3.79018 3.3008 3.73811 3.51591C3.48454 3.71936 3.53775 3.99578 3.56001 4.26392C3.56416 4.31281 3.57397 4.3617 3.5751 4.41134C3.57359 4.48693 3.58303 4.56365 3.55171 4.63623C3.48492 4.71445 3.48379 4.81862 3.44379 4.90738C3.39285 5.02133 3.32343 5.09504 3.18683 5.02697C3.16193 5.01381 3.1374 5.00064 3.1125 4.98711L3.11288 4.98748Z" fill="#E5212B"/>
<path d="M4.1283 5.47601C3.96907 5.4839 3.85814 5.3598 3.71362 5.3267C3.67476 5.29624 3.62457 5.28158 3.59288 5.24096C3.54383 5.17778 3.54307 5.11761 3.63212 5.1067C3.75324 5.09204 3.75739 5.03074 3.75136 4.9292C3.74343 4.79908 3.80645 4.68024 3.86455 4.56478C3.93964 4.53094 3.99398 4.55914 4.03737 4.62082C4.07925 4.75846 4.21471 4.73439 4.31206 4.77651C4.35319 4.79456 4.39205 4.81525 4.4079 4.8615C4.42035 4.92656 4.31206 4.9653 4.36866 5.04014C4.36866 5.05744 4.36338 5.07361 4.35432 5.08827C4.30716 5.16424 4.1966 5.23419 4.24188 5.32257C4.27848 5.39365 4.40073 5.36281 4.4845 5.37785C4.60034 5.39891 4.71655 5.33272 4.83466 5.36845C4.88522 5.38161 4.93616 5.39139 4.98898 5.39026C5.03388 5.39101 5.07841 5.38236 5.12293 5.37898C5.19651 5.38725 5.27462 5.37973 5.33348 5.4384C5.29386 5.4918 5.235 5.46999 5.18331 5.47601C5.1135 5.52226 5.02634 5.46472 4.95691 5.51286C4.86107 5.55348 4.75731 5.52753 4.6592 5.54671C4.49054 5.46209 4.3015 5.52602 4.1283 5.47563V5.47601Z" fill="#E7232D"/>
<path d="M5.33353 5.43834C5.25618 5.43947 5.17807 5.44549 5.10827 5.40111C5.06601 5.40036 5.02488 5.40224 4.99507 5.43834C4.943 5.43308 4.88376 5.45564 4.84414 5.40111C4.74339 5.37893 4.63661 5.3699 4.63548 5.22474C4.6351 5.15178 4.57511 5.12545 4.50719 5.11718C4.45285 5.11079 4.39474 5.11154 4.35437 5.06453C4.35437 5.05212 4.35437 5.03971 4.35437 5.0273C4.42304 4.90658 4.5385 4.93478 4.63699 4.95547C4.81923 4.99345 4.99809 5.02391 5.18713 5.01865C5.42862 5.0115 5.53276 5.14238 5.52144 5.39886C5.49578 5.41164 5.47012 5.42405 5.44484 5.43684C5.40786 5.43759 5.37051 5.43834 5.33353 5.43872V5.43834Z" fill="#E52228"/>
<path d="M3.86458 4.5791C3.86458 4.65921 3.86986 4.73781 3.81326 4.80926C3.78987 4.83859 3.77666 4.9014 3.79251 4.93223C3.91816 5.17706 3.73251 5.13832 3.59479 5.14246C3.59479 5.2346 3.69365 5.25566 3.71327 5.32673C3.48952 5.31019 3.36575 5.12102 3.18652 5.02701C3.40764 5.05371 3.3982 4.87131 3.44726 4.74269C3.46235 4.70283 3.41631 4.61295 3.52498 4.65319C3.60158 4.61295 3.70157 4.67726 3.76987 4.59941C3.79855 4.58023 3.82722 4.5603 3.8642 4.57873L3.86458 4.5791Z" fill="#E3212E"/>
<path d="M4.12831 5.47603C4.2566 5.47603 4.38489 5.47565 4.5128 5.4764C4.57204 5.47678 4.64034 5.46249 4.65883 5.5471C4.48035 5.53545 4.29961 5.53958 4.12793 5.47603H4.12831Z" fill="#DA323E"/>
<path d="M4.95691 5.51319C5.02332 5.44662 5.10784 5.48761 5.1833 5.47633C5.1169 5.5429 5.03275 5.50228 4.95691 5.51319Z" fill="#DA323E"/>
<path d="M2.88502 3.00818C2.82314 3.36996 2.75144 3.72836 2.86162 4.09804C2.90275 4.23643 2.92728 4.391 2.88502 4.54105C2.80616 4.57264 2.77371 4.51247 2.73447 4.46621C2.68956 4.4083 2.66806 4.33609 2.62278 4.27855C2.55939 4.01869 2.5858 3.75431 2.58882 3.49181C2.58957 3.42712 2.60995 3.35905 2.659 3.30716C2.70202 3.26616 2.70805 3.20675 2.73484 3.15786C2.74805 3.12138 2.76126 3.08527 2.77484 3.04917C2.81182 3.03563 2.84842 3.02247 2.8854 3.00893L2.88502 3.00818Z" fill="#E6252C"/>
<path d="M2.7345 4.46619C2.78468 4.49101 2.83487 4.5162 2.88505 4.54102C2.88505 4.60345 2.88505 4.6655 2.88543 4.72793C2.81675 4.65084 2.74921 4.57374 2.7345 4.46619Z" fill="#D7323B"/>
<path d="M2.6228 4.27856C2.69638 4.31993 2.72204 4.38913 2.73449 4.46622C2.65865 4.42636 2.63412 4.35641 2.6228 4.27856Z" fill="#D7323B"/>
<path d="M2.7349 3.15747C2.73792 3.2214 2.72811 3.27894 2.65906 3.30677C2.66547 3.24773 2.68585 3.19545 2.7349 3.15747Z" fill="#DC3142"/>
<path d="M6.46468 2.9334C6.52732 3.03344 6.58995 3.1331 6.65259 3.23313C6.67976 3.26736 6.67259 3.30459 6.66316 3.3422C6.54543 3.30534 6.52317 3.35235 6.50468 3.46818C6.46129 3.74384 6.56732 4.01123 6.53071 4.20528C6.53336 4.03229 6.62542 3.79047 6.60958 3.53587C6.60656 3.48924 6.60127 3.41628 6.68957 3.41891C6.79333 3.77694 6.739 4.12367 6.61486 4.46552C6.60203 4.47831 6.5892 4.4911 6.57637 4.50388C6.46468 4.56105 6.36884 4.63062 6.3613 4.77052C6.3296 4.79948 6.26545 4.79346 6.26508 4.85739C6.18093 4.85401 6.11754 4.91192 6.04095 4.93148C5.96209 4.91267 5.9851 4.81189 5.9202 4.77729C5.84474 4.82166 5.86323 4.95479 5.74663 4.95103C5.57269 4.89161 5.42289 4.79872 5.31988 4.64265C5.3727 4.57195 5.44289 4.58098 5.51533 4.60016C5.57646 4.64867 5.63759 4.69342 5.7123 4.62272C5.73116 4.60655 5.74965 4.59 5.76814 4.57308C5.77682 4.56443 5.79116 4.55503 5.79078 4.54525C5.78399 4.39482 5.79342 4.24289 5.76173 4.09396C5.75569 4.07742 5.75192 4.06049 5.74965 4.04319C5.74852 4.01837 5.74512 3.98791 5.76135 3.97136C5.85492 3.87396 5.84927 3.78558 5.76324 3.68104C5.69494 3.59792 5.68928 3.49864 5.79493 3.40538C5.64136 3.3862 5.52175 3.47495 5.38591 3.47156C5.2795 3.46893 5.20517 3.46216 5.25988 3.32978C5.28856 3.26021 5.27045 3.19628 5.23875 3.13385C5.20215 3.04961 5.26969 2.94995 5.19951 2.8706C5.17876 2.82322 5.14706 2.78185 5.12065 2.73747C5.11273 2.72017 5.10744 2.7025 5.10367 2.68407C5.09424 2.60509 5.08594 2.52537 5.09009 2.44639C5.09348 2.38471 5.0848 2.30499 5.18329 2.29822C5.1897 2.34936 5.21989 2.37606 5.2712 2.37193C5.47005 2.355 5.66475 2.39825 5.86134 2.41066V2.41142C5.98322 2.55395 5.88398 2.64646 5.77305 2.73033C6.02434 2.90031 6.19779 2.9151 6.29338 2.7747C6.37563 2.8014 6.4145 2.87361 6.46468 2.93416V2.9334Z" fill="#E5212B"/>
<path d="M3.71397 3.53172C3.68869 3.4392 3.7068 3.35383 3.74982 3.26959C3.86301 3.04809 3.78566 2.76942 3.58455 2.61071C3.51814 2.55844 3.47965 2.47081 3.37476 2.48473C3.50607 2.3343 3.71322 2.31174 3.86641 2.19816C3.91659 2.18425 3.96716 2.16996 4.01734 2.15604C4.15318 2.185 4.28524 2.14288 4.41881 2.13235C4.54824 2.13837 4.67879 2.11054 4.80671 2.1489C4.89085 2.23803 5.02404 2.13385 5.10819 2.22336C4.96594 2.31775 4.80595 2.25307 4.6554 2.27375C4.54635 2.2888 4.41542 2.22336 4.34146 2.36777C4.266 2.51557 4.31618 2.62764 4.42485 2.7303C4.43353 2.73858 4.43579 2.75212 4.43881 2.76415C4.41466 2.83448 4.3509 2.82319 4.29769 2.82846C4.04187 2.85403 3.94225 2.96798 3.9464 3.23424C3.9464 3.25267 3.95282 3.2711 3.95282 3.28952C3.92225 3.35045 3.83811 3.38091 3.85094 3.46703C3.84151 3.50238 3.82264 3.53096 3.78906 3.54826C3.76076 3.55654 3.7351 3.55315 3.71359 3.53209L3.71397 3.53172Z" fill="#E3232C"/>
<path d="M4.42977 2.78373C4.20941 2.60697 4.19809 2.55432 4.30073 2.28618C4.32903 2.2121 4.38412 2.22413 4.43656 2.22338C4.66032 2.2215 4.88407 2.22263 5.10783 2.22263C5.14367 2.23692 5.16895 2.26174 5.18291 2.29746C5.07424 2.4257 5.17574 2.57313 5.14518 2.70851C5.09424 2.73785 5.03576 2.7134 4.98369 2.73183C4.85426 2.74988 4.86483 2.89542 4.77918 2.95296C4.64372 3.10489 4.57127 2.97139 4.48713 2.88978C4.46071 2.85819 4.41015 2.83938 4.42977 2.78335V2.78373Z" fill="#E9232F"/>
<path d="M4.8068 2.14848C4.6687 2.14848 4.5306 2.14848 4.3925 2.14848C4.38797 2.14246 4.38307 2.13607 4.37854 2.13005C4.38345 2.12403 4.38835 2.11839 4.39363 2.11238C4.64418 2.12892 4.89812 2.068 5.14564 2.14735C5.03282 2.14735 4.91962 2.1481 4.8068 2.14848Z" fill="#E02F38"/>
<path d="M5.18408 2.14968C5.27955 2.14591 5.36935 2.16246 5.4467 2.22263C5.35124 2.22639 5.26143 2.20985 5.18408 2.14968Z" fill="#E02F38"/>
<path d="M5.33465 4.61708C5.44785 4.75021 5.6018 4.82768 5.7482 4.9153C5.78857 4.95818 5.81272 5.00556 5.79423 5.06611C5.75235 5.11049 5.69462 5.1056 5.62934 5.10409C5.77876 5.18796 5.74065 5.25791 5.63538 5.32597C5.59727 5.35042 5.55916 5.37449 5.52105 5.39893C5.4969 5.335 5.47502 5.27032 5.44823 5.20751C5.412 5.12252 5.35578 5.06197 5.25239 5.0646C5.03505 5.07062 4.81998 5.06799 4.60905 4.99691C4.52906 4.96983 4.43473 4.97848 4.35436 5.02737C4.31814 5.02399 4.27172 5.02136 4.26795 4.98036C4.26041 4.89537 4.36945 4.93561 4.39209 4.87807C4.41209 4.85664 4.43775 4.85062 4.46567 4.85175C4.58755 4.87469 4.71282 4.8713 4.83507 4.89575C4.88752 4.90628 4.95091 4.91267 4.96864 4.83482C4.97921 4.80098 4.99581 4.77127 5.02487 4.74983C5.03996 4.74081 5.05618 4.73441 5.07279 4.7299C5.18372 4.74946 5.22674 4.63889 5.3105 4.6073C5.31843 4.61031 5.32673 4.61332 5.33465 4.6167V4.61708Z" fill="#E5242D"/>
<path d="M5.63567 5.3259C5.74887 5.18111 5.70774 5.11906 5.50549 5.1514C5.59115 5.01488 5.70019 5.08596 5.78585 5.0649C5.91074 5.07957 5.97526 4.98894 6.0496 4.91523C6.09186 4.79112 6.18053 4.80579 6.27599 4.84039C6.28844 4.82873 6.30052 4.8291 6.31297 4.84039C6.12204 5.05061 5.90961 5.23037 5.63529 5.32627L5.63567 5.3259Z" fill="#E5252C"/>
<path d="M6.3134 4.84C6.30095 4.84 6.28888 4.84 6.27643 4.84C6.23379 4.74824 6.30473 4.76855 6.35151 4.76516C6.38472 4.75689 6.39943 4.76705 6.38887 4.8024L6.39 4.80352C6.36472 4.81556 6.33906 4.82759 6.31378 4.84H6.3134Z" fill="#F01B30"/>
<path d="M6.65261 3.34485C6.65261 3.30762 6.65261 3.27039 6.65261 3.23315C6.67601 3.27114 6.6994 3.30912 6.72279 3.3471C6.73713 3.4336 6.75185 3.5201 6.76619 3.60659C6.79449 3.74348 6.79449 3.88075 6.76619 4.01764C6.7028 4.16281 6.73977 4.34106 6.6145 4.46554C6.70883 4.1801 6.6911 3.88526 6.68959 3.59193C6.68959 3.53288 6.70959 3.46745 6.65299 3.41931C6.63299 3.39449 6.62922 3.36967 6.65299 3.34485H6.65261Z" fill="#DB3037"/>
<path d="M6.3885 4.80239C6.37605 4.78998 6.3636 4.77756 6.35115 4.76515C6.31681 4.58351 6.38549 4.50378 6.57604 4.50378C6.54887 4.57674 6.5217 4.64932 6.49416 4.72191C6.45869 4.74861 6.4236 4.77531 6.38813 4.80201L6.3885 4.80239Z" fill="#DF2530"/>
<path d="M6.76624 4.01761C6.76624 3.88072 6.76624 3.74346 6.76624 3.60657C6.82585 3.74383 6.82585 3.88072 6.76624 4.01761Z" fill="#D3434A"/>
<path d="M4.39241 2.14853C4.26827 2.21171 4.14299 2.20043 4.01697 2.15568C4.0664 2.15304 4.11583 2.15003 4.16526 2.1474C4.24072 2.12033 4.31619 2.11995 4.39127 2.1474L4.39203 2.14853H4.39241Z" fill="#E02F38"/>
<path d="M4.39167 2.14771C4.3162 2.14771 4.24074 2.14771 4.16565 2.14771C4.23357 2.08415 4.31733 2.12138 4.39355 2.11273C4.3928 2.12439 4.39204 2.13605 4.39167 2.14771Z" fill="#D53F45"/>
<path d="M6.31305 2.78371C6.30211 2.79838 6.28287 2.81229 6.28174 2.82733C6.27608 2.90894 6.2723 3.02026 6.18288 3.02101C6.09081 3.02176 5.97799 2.99168 5.91083 2.90556C5.88554 2.87284 5.88177 2.82282 5.82555 2.82282C5.58821 2.82357 5.69839 2.7194 5.78555 2.65998C5.88894 2.58966 5.8829 2.50767 5.8614 2.41064C5.87309 2.41064 5.88517 2.41064 5.89686 2.41215C5.98176 2.52497 6.08477 2.61147 6.22891 2.63892C6.24136 2.68631 6.26212 2.72767 6.31192 2.74685C6.32362 2.75475 6.32777 2.76265 6.324 2.77092C6.32022 2.7792 6.31645 2.78333 6.31268 2.78333L6.31305 2.78371Z" fill="#E22327"/>
<path d="M6.31301 2.78367C6.31339 2.77164 6.31301 2.75923 6.31226 2.74719C6.38508 2.79157 6.45375 2.83858 6.4647 2.93297C6.3998 2.89762 6.35037 2.84648 6.31301 2.78367Z" fill="#D4353F"/>
<path d="M3.37398 2.48401C3.36493 2.57577 3.27852 2.65926 3.35814 2.7623C3.39021 2.80367 3.33965 2.83789 3.29927 2.85858C3.21664 2.80818 3.12608 2.81608 3.03552 2.82097C3.03703 2.71417 3.15476 2.68295 3.18494 2.59495C3.21022 2.57051 3.23588 2.54568 3.26116 2.52124C3.29852 2.50883 3.33625 2.49642 3.37361 2.48401H3.37398Z" fill="#E82934"/>
<path d="M3.03601 2.8213C3.13864 2.73254 3.22996 2.72013 3.29976 2.8589C3.19939 2.97022 3.09903 2.96985 2.99866 2.85928C3.01111 2.84649 3.02356 2.83408 3.03601 2.8213Z" fill="#F0212E"/>
<path d="M3.71402 3.53174C3.73892 3.53174 3.7642 3.53174 3.78911 3.53174C3.80986 3.55054 3.81363 3.57423 3.80873 3.60056C3.79439 3.6408 3.76458 3.66938 3.7359 3.69909C3.70345 3.73256 3.66459 3.75964 3.63516 3.79612C3.59101 3.86193 3.6578 3.91082 3.66157 3.96949C3.64195 4.07253 3.59629 4.17106 3.60988 4.27975C3.60761 4.31848 3.60082 4.35571 3.57743 4.38768C3.56158 4.40347 3.54422 4.40498 3.52573 4.39219C3.448 4.13759 3.54309 3.87885 3.50875 3.62275C3.50196 3.57198 3.53743 3.57875 3.56762 3.59041C3.63667 3.61786 3.66346 3.54641 3.7144 3.53174H3.71402Z" fill="#E0282B"/>
<path d="M3.52577 4.39172C3.53822 4.39172 3.55067 4.39172 3.56312 4.39172C3.62463 4.43234 3.58463 4.52673 3.65595 4.56171C3.67972 4.56735 3.70349 4.57224 3.72726 4.57788C3.75216 4.58427 3.77443 4.5948 3.78952 4.61662C3.71896 4.752 3.61934 4.68243 3.52539 4.65347C3.52539 4.56622 3.52539 4.47897 3.52539 4.39172H3.52577Z" fill="#D52A2F"/>
<path d="M4.35435 5.06458C4.42227 5.06458 4.48981 5.06534 4.55773 5.06458C4.63697 5.06458 4.70225 5.0973 4.68904 5.18004C4.66753 5.31242 4.74337 5.36131 4.84412 5.40079C4.65282 5.40719 4.46415 5.43276 4.26945 5.40794C4.13701 5.39102 4.13211 5.32859 4.17927 5.25901C4.22644 5.18944 4.23021 5.06835 4.35473 5.06421L4.35435 5.06458Z" fill="#E9202A"/>
<path d="M3.78981 4.61669C3.76302 4.61556 3.73623 4.61481 3.70944 4.61368C3.69359 4.55125 3.73472 4.51139 3.7668 4.46739C3.78038 4.4546 3.79585 4.44445 3.81321 4.4373C3.91357 4.40834 3.99583 4.44106 4.06752 4.51064C4.11695 4.57306 4.20185 4.60541 4.22336 4.69153C4.22185 4.71033 4.2143 4.7265 4.20147 4.74004C4.11846 4.75546 4.05847 4.72312 4.01583 4.65354C3.98715 4.58585 3.9298 4.57494 3.8649 4.57946C3.84 4.59187 3.81472 4.60465 3.78981 4.61706V4.61669Z" fill="#DA323A"/>
<path d="M4.0155 4.6532C4.07738 4.6784 4.13964 4.70397 4.20152 4.72916C4.25095 4.72653 4.2985 4.72766 4.32378 4.78069C4.32151 4.78821 4.31887 4.79573 4.31661 4.80325C4.20643 4.77279 4.04493 4.84387 4.0155 4.6532Z" fill="#E22430"/>
<path d="M4.46795 4.87769C4.44267 4.87769 4.41776 4.87769 4.39248 4.87769C4.3672 4.85287 4.3423 4.82805 4.31702 4.80323L4.32003 4.79721C4.36154 4.72726 4.41625 4.76299 4.46832 4.77841C4.54379 4.8115 4.64982 4.76111 4.70038 4.86152C4.6268 4.92395 4.54719 4.89875 4.46795 4.87769Z" fill="#E22430"/>
<path d="M4.995 5.43839C5.01009 5.35828 5.04593 5.34023 5.10819 5.40115C5.08103 5.44515 5.0365 5.43726 4.995 5.43839Z" fill="#F01E29"/>
<path d="M5.25921 3.12033C5.40335 3.2121 5.31656 3.32003 5.26336 3.42871C5.41014 3.41818 5.53994 3.42646 5.66068 3.35801C5.71351 3.3283 5.78596 3.33131 5.84293 3.36065C5.89614 3.38847 5.91727 3.45842 5.84633 3.46632C5.66408 3.48701 5.75351 3.59983 5.7935 3.64345C5.91161 3.77207 5.92557 3.88151 5.79086 4.0011C5.78105 4.00975 5.78747 4.03682 5.78633 4.05563C5.77162 4.06954 5.75426 4.07443 5.73426 4.07029C5.69276 4.05262 5.68521 4.0184 5.68898 3.97853C5.77992 3.70137 5.70785 3.62164 5.35845 3.61374C5.30826 3.60923 5.26298 3.59381 5.22714 3.55696C5.14488 3.40239 5.03244 3.25346 5.1313 3.06392C5.19129 3.04362 5.23053 3.07069 5.25959 3.12033H5.25921Z" fill="#E1242E"/>
<path d="M6.6526 3.34474C6.6526 3.36956 6.6526 3.39438 6.6526 3.41921C6.67713 3.75203 6.60204 4.07207 6.54318 4.42181C6.44998 4.29809 6.49375 4.18978 6.48167 4.08749C6.45337 3.84342 6.4296 3.60198 6.46469 3.35753C6.47186 3.30714 6.43262 3.23192 6.50695 3.21462C6.55714 3.20296 6.58732 3.26238 6.61449 3.3045C6.6243 3.31955 6.63977 3.3312 6.6526 3.34437V3.34474Z" fill="#E42227"/>
<path d="M6.04998 4.91529C6.0013 5.0849 5.91376 5.13454 5.78623 5.06497C5.76057 5.01834 5.74283 4.96982 5.74849 4.91529C5.80245 4.91116 5.8232 4.87957 5.82358 4.82842C5.82396 4.76185 5.83792 4.69604 5.92093 4.6983C6.00356 4.70093 6.01187 4.769 6.01224 4.83444C6.01224 4.86716 6.02205 4.89498 6.0496 4.91492L6.04998 4.91529Z" fill="#EC212A"/>
<path d="M4.76821 2.93299C4.795 2.87132 4.82405 2.81077 4.84783 2.74834C4.87952 2.66523 4.9331 2.67501 4.99461 2.70923C5.04781 2.71036 5.10101 2.70923 5.14516 2.74646C5.21987 2.7491 5.22138 2.80212 5.22138 2.8559C5.21006 2.87094 5.19572 2.8826 5.17799 2.89012C5.12478 2.90742 5.06932 2.90404 5.01423 2.90629C4.93348 2.89163 4.86933 2.96496 4.78821 2.94917C4.78142 2.9439 4.77463 2.93864 4.76746 2.93299H4.76821Z" fill="#DC292D"/>
<path d="M5.78668 4.09241C5.86705 4.18718 5.86667 4.52301 5.7863 4.6159C5.7648 4.50609 5.72065 4.40229 5.69763 4.29285C5.70141 4.26803 5.71084 4.24509 5.72103 4.22253C5.74367 4.17966 5.74367 4.12513 5.78668 4.09241Z" fill="#DC2E30"/>
<path d="M5.71195 4.28383C5.76289 4.38876 5.84854 4.48616 5.78591 4.61591C5.77308 4.62832 5.76063 4.64073 5.7478 4.65314C5.73346 4.66668 5.71837 4.6678 5.70176 4.65727C5.69271 4.64261 5.68667 4.62681 5.68441 4.60951C5.68931 4.55047 5.68101 4.49556 5.63649 4.45081C5.61951 4.42937 5.60819 4.40568 5.60291 4.37898C5.60291 4.31956 5.60592 4.26277 5.68931 4.26653C5.69686 4.27255 5.70403 4.27819 5.71157 4.28421L5.71195 4.28383Z" fill="#D83742"/>
<path d="M5.17845 2.86186C5.19279 2.85961 5.20751 2.85773 5.22185 2.85547C5.36221 2.92617 5.23958 3.03298 5.25882 3.12022C5.22147 3.10781 5.18411 3.09503 5.14676 3.08262C5.1245 3.04012 5.16638 3.01041 5.16864 2.9728C5.17506 2.93632 5.16034 2.89759 5.17845 2.86224V2.86186Z" fill="#E92B3F"/>
<path d="M5.52215 4.61624C5.45952 4.60383 5.39726 4.65685 5.33462 4.61699L5.33387 4.61586C5.31689 4.53576 5.36519 4.50003 5.43197 4.49514C5.49084 4.491 5.53951 4.51959 5.53762 4.59179C5.53272 4.59969 5.52744 4.60796 5.52253 4.61624H5.52215Z" fill="#E5242D"/>
<path d="M5.71125 4.65237C5.7237 4.65237 5.73577 4.65237 5.74822 4.65275C5.66295 4.70164 5.57503 4.76557 5.52258 4.61589L5.52296 4.61552C5.59843 4.56475 5.65465 4.60875 5.71125 4.65237Z" fill="#E5242D"/>
<path d="M5.14555 2.74645C5.09348 2.74118 5.03461 2.76412 4.995 2.70922C5.04518 2.64115 5.09536 2.69079 5.14555 2.70922C5.14555 2.72163 5.14555 2.73404 5.14555 2.74645Z" fill="#E12236"/>
<path d="M5.78662 4.0924C5.78172 4.1443 5.8021 4.20221 5.75116 4.24358C5.69229 4.1819 5.69531 4.1191 5.74814 4.05554C5.76059 4.05554 5.77342 4.05554 5.78587 4.05554C5.78587 4.06795 5.78587 4.07999 5.78662 4.0924Z" fill="#D83742"/>
<path d="M3.78945 3.602C3.78945 3.57868 3.78945 3.55499 3.78907 3.53168C3.8019 3.50685 3.81435 3.48203 3.82718 3.45721C3.87737 3.39892 3.95547 3.42149 4.02113 3.39253C4.02037 3.33875 3.9551 3.34552 3.94 3.30791C3.88454 3.23195 3.82266 3.15635 3.93019 3.07362C3.97849 3.03639 3.94529 2.98336 3.9551 2.94199C3.98491 2.81601 4.08301 2.77577 4.2079 2.78367C4.28148 2.78818 4.35582 2.78442 4.42977 2.78442C4.45505 2.80924 4.47996 2.83406 4.50524 2.85926C4.48637 2.88069 4.46184 2.88859 4.4343 2.8901C4.34638 2.88558 4.25809 2.84233 4.17055 2.89198C4.11244 2.97659 4.21243 2.99352 4.2362 3.04278C4.2728 3.09017 4.2845 3.14319 4.27545 3.20148C4.22488 3.32784 4.21017 3.47 4.10716 3.57342C4.00566 3.63321 3.90454 3.69527 3.7887 3.60275L3.78945 3.602Z" fill="#E12431"/>
<path d="M3.94009 3.30714C4.00574 3.31128 4.10234 3.28871 4.09479 3.38912C4.08951 3.45945 4.00159 3.45381 3.93971 3.45644C3.90198 3.45794 3.86424 3.45644 3.82689 3.45644C3.7601 3.32895 3.83708 3.30827 3.94009 3.30676V3.30714Z" fill="#E5212B"/>
<path d="M4.66681 2.8913C4.61701 2.88077 4.56645 2.85219 4.56946 2.79916C4.57248 2.74839 4.63021 2.74651 4.67474 2.74764C4.72039 2.74877 4.76794 2.75328 4.76039 2.81608C4.75435 2.86573 4.72002 2.89017 4.66644 2.8913H4.66681Z" fill="#EF2131"/>
<path d="M4.43055 2.85852C4.45545 2.85852 4.48035 2.85852 4.50526 2.85852C4.58676 2.90478 4.64147 3.04505 4.76825 2.93298L4.76901 2.93374C4.79202 3.0537 4.72109 3.07965 4.62261 3.07852C4.60525 3.07476 4.58902 3.06799 4.57393 3.05897C4.53205 3.01986 4.50262 2.96871 4.45281 2.93674C4.4396 2.92659 4.42904 2.91456 4.4196 2.90139C4.41357 2.88485 4.41772 2.87055 4.43017 2.8589L4.43055 2.85852Z" fill="#DC292D"/>
<path d="M4.42944 4.80437C4.39397 4.78443 4.35775 4.77691 4.31964 4.79722C4.2804 4.77428 4.24078 4.75172 4.20154 4.72915C4.20305 4.71449 4.20456 4.69982 4.20607 4.68478C4.25663 4.64378 4.31436 4.65507 4.36756 4.67086C4.62603 4.74833 4.8762 4.71223 5.12334 4.6231C5.15428 4.61896 5.18372 4.6231 5.21126 4.63777C5.24899 4.7739 5.11051 4.71599 5.06901 4.7645C5.05693 4.76526 5.04486 4.76601 5.03279 4.76714C4.84073 4.92396 4.63093 4.80136 4.42907 4.80437H4.42944Z" fill="#DB4E5B"/>
<path d="M5.06935 4.76443C5.10444 4.70727 5.19349 4.71592 5.2165 4.64446C5.20896 4.56812 5.27386 4.52863 5.30555 4.47222C5.31612 4.45906 5.32895 4.44778 5.34253 4.438C5.46969 4.35752 5.54365 4.44853 5.62213 4.52375C5.6342 4.53352 5.64552 4.54405 5.65722 4.55458C5.67533 4.5685 5.69193 4.58429 5.70627 4.60234C5.70778 4.61927 5.70929 4.63581 5.7108 4.65274C5.64816 4.64033 5.58515 4.62829 5.52251 4.61588C5.4595 4.46357 5.39649 4.51923 5.33385 4.61588C5.25461 4.68132 5.21311 4.81257 5.06897 4.76443H5.06935Z" fill="#D8353F"/>
<path d="M4.46791 4.87766C4.54337 4.86562 4.62752 4.90737 4.69355 4.8408C4.79392 4.81486 4.89428 4.8032 4.99465 4.84005C5.05012 4.93069 4.98296 4.95513 4.91957 4.94874C4.76788 4.93369 4.6128 4.93445 4.46753 4.87766H4.46791Z" fill="#EA2234"/>
<path d="M4.99468 4.84005C4.89431 4.84005 4.79394 4.8408 4.69357 4.8408C4.60603 4.82576 4.50944 4.87314 4.42944 4.80432C4.63131 4.80131 4.83469 4.82049 5.03316 4.76709C5.02033 4.79153 5.00751 4.8156 4.99468 4.84005Z" fill="#D8353F"/>
<path d="M5.14595 4.65387C4.83806 4.82122 4.52299 4.78023 4.20641 4.68471C4.15548 4.63657 4.10454 4.58843 4.0536 4.54029C3.98643 4.44251 3.90795 4.38686 3.79136 4.46922L3.79211 4.46846C3.75023 4.51209 3.72193 4.57 3.65778 4.58956C3.63892 4.5873 3.62533 4.57715 3.61628 4.5606C3.59439 4.49366 3.62118 4.43763 3.6559 4.38347C3.73174 4.29923 3.85739 4.29397 3.93323 4.21048C3.97247 4.15745 3.96153 4.12398 3.8955 4.11044C3.80268 4.10706 3.77174 4.21349 3.68759 4.2259C3.61288 4.21762 3.60269 4.1661 3.60647 4.10555C3.62684 4.03899 3.67212 3.99386 3.73249 3.96152C3.74872 3.954 3.7657 3.94873 3.78306 3.94497C3.83211 3.92842 3.90191 3.95588 3.92267 3.87953C3.91701 3.77123 3.86041 3.77574 3.78947 3.82162C3.73513 3.85659 3.69174 3.91789 3.61288 3.88254C3.57326 3.84381 3.57364 3.80093 3.59967 3.75581C3.63326 3.72873 3.66684 3.70203 3.70042 3.67495C3.78117 3.64675 3.86192 3.62681 3.94908 3.62155C4.02756 3.61666 4.10642 3.59146 4.14453 3.50797C4.20792 3.43314 4.28112 3.37597 4.38451 3.37146C4.60487 3.38349 4.62751 3.40568 4.63166 3.62305C4.63543 3.80846 4.62751 3.99386 4.63694 4.17851C4.65807 4.21386 4.63506 4.26388 4.67467 4.29171C4.67618 4.27667 4.67732 4.2635 4.67807 4.24884C4.69505 3.9743 4.64373 3.69902 4.71014 3.42787C4.73807 3.39064 4.77882 3.37936 4.82259 3.37409C4.91843 3.36507 5.00823 3.38951 5.09615 3.42261C5.14143 3.44555 5.18029 3.47638 5.21085 3.517C5.26594 3.62042 5.3682 3.6035 5.45838 3.60613C5.56403 3.60914 5.64138 3.65464 5.68326 3.74528C5.71458 3.81297 5.7176 3.88518 5.60252 3.87126C5.57648 3.86186 5.55384 3.84682 5.53347 3.82839C5.47008 3.77536 5.40404 3.70842 5.38593 3.86035C5.41084 3.9649 5.51045 3.94798 5.58063 3.97882C5.63912 3.99574 5.67232 4.03824 5.69572 4.09089C5.70779 4.16648 5.70364 4.22853 5.59837 4.20672C5.55535 4.19243 5.52328 4.16159 5.48857 4.13451C5.46253 4.12135 5.43461 4.10405 5.40857 4.13113C5.37348 4.16798 5.3848 4.20484 5.41574 4.23868C5.48819 4.29058 5.59044 4.29998 5.63534 4.39062C5.64704 4.40416 5.65912 4.41769 5.67081 4.43123C5.69157 4.48764 5.74062 4.55082 5.63572 4.57752C5.55233 4.49893 5.50554 4.31954 5.33877 4.47222L5.3399 4.4711C5.27726 4.53428 5.22255 4.60535 5.14558 4.65349L5.14595 4.65387Z" fill="#FEFDFD"/>
<path d="M4.16264 3.52382C4.05246 3.70509 3.85663 3.62988 3.70117 3.67463C3.7306 3.65018 3.76003 3.62612 3.78947 3.60167C3.89512 3.60129 4.00228 3.60656 4.09359 3.53811C4.11132 3.50878 4.13585 3.51029 4.16264 3.52382Z" fill="#F7E3E3"/>
<path d="M3.64081 4.61403C3.49819 4.58019 3.5895 4.46548 3.56309 4.39177C3.56384 4.35379 3.56497 4.31581 3.56573 4.27782C3.57969 4.26617 3.59554 4.25827 3.61365 4.25488C3.72232 4.26917 3.6827 4.33273 3.6593 4.39065C3.64496 4.4527 3.58761 4.50986 3.6378 4.57906H3.63817C3.651 4.5862 3.65553 4.59372 3.65213 4.60162C3.64874 4.6099 3.64496 4.61403 3.64081 4.61403Z" fill="#C73045"/>
<path d="M3.60232 4.27709L3.5842 4.27821H3.56609C3.531 4.15486 3.59703 4.05295 3.63665 3.94539C3.64231 3.94012 3.64835 3.93448 3.65401 3.92884C3.7008 3.91681 3.73212 3.93335 3.74759 3.97924C3.72193 4.02737 3.64458 4.02361 3.63628 4.08905C3.60458 4.13568 3.62609 4.1857 3.62722 4.23459C3.62269 4.25114 3.61439 4.26543 3.60232 4.27746V4.27709Z" fill="#CD5E61"/>
<path d="M3.60005 3.75549C3.60345 3.801 3.58421 3.8529 3.63816 3.88373C3.65854 3.90291 3.66043 3.92209 3.6393 3.94203L3.63628 3.94466C3.55968 3.89389 3.52346 3.83522 3.60005 3.75549Z" fill="#CD5E61"/>
<path d="M3.64078 4.61405C3.63663 4.60276 3.6355 4.59111 3.63814 4.57945C3.68946 4.54259 3.74077 4.50574 3.79209 4.46851C3.78605 4.52905 3.74077 4.56741 3.70908 4.61367C3.68644 4.61367 3.66342 4.61367 3.64078 4.61405Z" fill="#F6D6D5"/>
<path d="M3.79138 4.46924C3.91137 4.36319 3.96872 4.37861 4.05362 4.54032C3.97854 4.4715 3.89477 4.43502 3.79138 4.46924Z" fill="#F6D6D5"/>
<path d="M5.1852 3.52758C5.15841 3.50539 5.13124 3.48282 5.10445 3.46064C5.08747 3.43657 5.07012 3.41212 5.06219 3.38317C5.05653 3.3324 5.03012 3.29216 5.00031 3.25192C4.95201 3.18761 4.88976 3.11503 4.95805 3.03868C5.02333 2.96535 5.1086 2.90593 5.21878 2.96798C5.22897 3.0274 5.16973 3.04357 5.14709 3.08231C5.09804 3.25492 5.20709 3.39219 5.25199 3.54375C5.22595 3.55315 5.20294 3.55202 5.18558 3.52758H5.1852Z" fill="#D73F49"/>
<path d="M5.67234 4.09544C5.63839 4.06762 5.63461 4.00368 5.57084 4.01233C5.50708 3.94765 5.36294 3.98977 5.35388 3.85175C5.38294 3.70997 5.40671 3.70395 5.55613 3.8006L5.58858 3.83671C5.6199 3.88597 5.68404 3.87093 5.72328 3.90515C5.73045 3.93148 5.73196 3.95705 5.71234 3.97961C5.71272 4.01045 5.71913 4.03828 5.74856 4.05521C5.7497 4.11801 5.75083 4.18081 5.75158 4.24324C5.73838 4.2564 5.72555 4.26994 5.71234 4.28311L5.71121 4.27859C5.69913 4.26693 5.69046 4.25302 5.68555 4.23647C5.68215 4.18909 5.71423 4.13869 5.6731 4.09469L5.67234 4.09544Z" fill="#CA4D51"/>
<path d="M5.71004 3.90704C5.65118 3.91532 5.60099 3.9078 5.58816 3.8371C5.64439 3.84838 5.70174 3.84988 5.65759 3.77053C5.61345 3.69118 5.54364 3.64718 5.44365 3.64229C5.34705 3.6374 5.23989 3.63477 5.18518 3.52759C5.20744 3.53285 5.2297 3.53849 5.25159 3.54376C5.2814 3.57949 5.32177 3.57535 5.36177 3.57347C5.49157 3.59566 5.64099 3.56933 5.72061 3.716C5.75645 3.78219 5.80173 3.848 5.70966 3.90667L5.71004 3.90704Z" fill="#F0CACB"/>
<path d="M5.71008 3.90705C5.77573 3.74007 5.66404 3.67088 5.5399 3.61597C5.48519 3.5919 5.4218 3.58701 5.36218 3.57385C5.43048 3.57272 5.50104 3.56144 5.56745 3.57272C5.76705 3.60619 5.83158 3.79498 5.71234 3.98001C5.71159 3.95556 5.71121 3.9315 5.71045 3.90705H5.71008Z" fill="#E13841"/>
<path d="M5.21878 2.96838C5.15426 2.9586 5.09879 2.98531 5.04408 3.01276C4.94824 3.0609 4.91654 3.11956 5.01087 3.20418C5.06295 3.25081 5.13803 3.29143 5.10256 3.38432C5.03653 3.43283 4.97541 3.3704 4.91126 3.37567C4.75618 3.3422 4.59959 3.35611 4.44338 3.36363C4.42602 3.36852 4.40829 3.37266 4.39055 3.3768C4.34603 3.37981 4.30226 3.38921 4.25773 3.39297C4.18189 3.34069 4.22 3.28466 4.25811 3.23652C4.34414 3.12859 4.30452 3.05676 4.19434 3.00787C4.07888 2.95635 4.0902 2.90295 4.18416 2.84202C4.26943 2.84202 4.35886 2.82435 4.42338 2.90332L4.42262 2.90219C4.49469 2.9304 4.54186 2.9838 4.5762 3.05037V3.04961C4.65053 3.09324 4.71128 3.09098 4.77165 3.01614C4.82976 2.94431 4.90409 2.88527 4.99918 2.8612C5.0588 2.8612 5.11804 2.86195 5.17765 2.86233C5.19954 2.89467 5.23501 2.92175 5.21803 2.96838H5.21878Z" fill="#FBF5F6"/>
<path d="M4.9999 2.86077C4.92368 2.91342 4.84934 2.96532 4.79048 3.04091C4.72973 3.11875 4.65163 3.14658 4.57654 3.04918C4.66747 3.05444 4.74105 3.0315 4.76935 2.93335C4.85387 2.9326 4.90594 2.8303 5.00027 2.86077H4.9999Z" fill="#D93C46"/>
<path d="M5.70933 4.24243C5.71084 4.25447 5.71122 4.26688 5.71047 4.27929C5.63576 4.2838 5.63727 4.33833 5.63576 4.39136C5.55086 4.353 5.46634 4.31464 5.38144 4.27628C5.33691 4.10216 5.35729 4.07583 5.51992 4.0999L5.5867 4.17211C5.6184 4.21122 5.66934 4.21723 5.70933 4.24243Z" fill="#CC6361"/>
<path d="M5.63611 4.57793C5.69082 4.53957 5.66705 4.48241 5.67158 4.43164C5.75119 4.47489 5.74667 4.53506 5.70667 4.602C5.67988 4.60313 5.64969 4.61479 5.63649 4.57756L5.63611 4.57793Z" fill="#EDC3C7"/>
<path d="M4.16825 2.8596C4.11807 2.92504 4.1275 2.95588 4.21353 2.98709C4.412 3.05892 4.41238 3.07735 4.28447 3.24132C4.25202 3.28269 4.2007 3.32631 4.27503 3.3767C4.31239 3.3673 4.35805 3.34286 4.35088 3.41694C4.27617 3.43161 4.2241 3.48652 4.16259 3.52413C4.13958 3.52901 4.11656 3.53353 4.09354 3.53842C4.14259 3.42447 4.19165 3.31014 4.24108 3.19619C4.29843 3.12925 4.26824 3.08374 4.2041 3.04651C4.11656 3.00665 4.03506 2.96453 4.12712 2.85434C4.14297 2.84268 4.15655 2.84531 4.16825 2.85998V2.8596Z" fill="#DA5959"/>
<path d="M4.16833 2.85962C4.15474 2.85774 4.14078 2.85586 4.1272 2.85398C4.22945 2.79155 4.3302 2.81486 4.43057 2.85849C4.4283 2.87316 4.42642 2.8882 4.42415 2.90287C4.34001 2.88143 4.25888 2.84382 4.16833 2.85962Z" fill="#D93C46"/>
<path d="M4.20374 3.04614C4.3158 3.07172 4.35844 3.11421 4.24071 3.19582C4.24637 3.14129 4.23015 3.0924 4.20374 3.04614Z" fill="#C22530"/>
<path d="M4.57691 3.04991C4.50824 3.01832 4.47013 2.95551 4.42334 2.90173C4.52258 2.90173 4.57125 2.95401 4.57691 3.04991Z" fill="#D93C46"/>
<path d="M5.146 4.65395C5.19882 4.58062 5.25316 4.50879 5.34032 4.47156C5.32598 4.54828 5.25882 4.58776 5.21618 4.64455C5.19278 4.64756 5.16939 4.65094 5.146 4.65395Z" fill="#EDC3C7"/>
<path d="M5.33911 4.47258C5.45835 4.34397 5.54136 4.3733 5.63607 4.57751C5.54438 4.5226 5.48363 4.3812 5.33911 4.47258Z" fill="#EDC3C7"/>
<path d="M4.69123 4.39069C4.64218 4.40272 4.6164 4.35459 4.61388 4.24628C4.58256 4.03342 4.60105 3.81906 4.60256 3.60545C4.60332 3.4757 4.60407 3.37003 4.42635 3.39598C4.40069 3.39974 4.38749 3.37191 4.39126 3.3437H4.39164C4.49238 3.30873 4.59653 3.33016 4.69878 3.32828C4.78594 3.3264 4.79236 3.36627 4.73614 3.42493C4.71085 3.73707 4.76481 4.05185 4.6984 4.36248C4.64331 4.06802 4.6935 3.77092 4.67086 3.47533C4.69048 3.78032 4.64973 4.08645 4.69123 4.39106V4.39069Z" fill="#C35F63"/>
<path d="M3.63968 3.942C3.6393 3.92244 3.63893 3.90288 3.63855 3.8837C3.68156 3.87317 3.70835 3.84723 3.73552 3.81037C3.77514 3.75659 3.83815 3.71146 3.90834 3.73328C3.98871 3.7581 3.98456 3.83406 3.97663 3.90326C3.93852 3.99502 3.84344 3.93899 3.7842 3.97659C3.77212 3.97622 3.75967 3.97659 3.7476 3.97885C3.71175 3.96682 3.6759 3.95441 3.63968 3.94237V3.942Z" fill="#CB5D6A"/>
<path d="M3.60229 4.27705C3.60456 4.26088 3.60645 4.24509 3.60871 4.22892C3.64267 4.21312 3.68493 4.23568 3.71587 4.2056C3.75436 4.13114 3.80416 4.07021 3.89548 4.06006C3.97358 4.09804 4.02754 4.14656 3.97434 4.24095C3.89321 4.32557 3.76832 4.33045 3.67927 4.40003C3.66418 4.41206 3.65135 4.40943 3.64078 4.39439C3.62833 4.35528 3.697 4.28984 3.60229 4.27705Z" fill="#CE5C6D"/>
<path d="M4.39099 3.34371C4.62342 3.35838 4.637 3.50993 4.62379 3.69233C4.61059 3.87623 4.61663 4.06125 4.61398 4.24591C4.55399 4.05298 4.58342 3.85479 4.59097 3.66036C4.59776 3.47571 4.55512 3.37831 4.35099 3.41629C4.32571 3.40275 4.30043 3.38959 4.27515 3.37605C4.3076 3.34371 4.34835 3.3392 4.39136 3.34333L4.39099 3.34371Z" fill="#CF9098"/>
<path d="M4.69126 4.39069C4.61164 4.06839 4.67654 3.74384 4.69843 3.42004C4.69843 3.73406 4.69843 4.04808 4.69843 4.36211C4.70258 4.37339 4.70031 4.38279 4.69126 4.39069Z" fill="#AD434B"/>
<path d="M4.73623 3.42491C4.75284 3.36098 4.72605 3.34105 4.66265 3.34406C4.57247 3.34819 4.48192 3.34406 4.39136 3.34406C4.56832 3.28764 4.74604 3.29141 4.92376 3.34067C4.90678 3.37264 4.87132 3.37903 4.84415 3.39671C4.8083 3.40611 4.77208 3.41551 4.73623 3.42491Z" fill="#CF9098"/>
<path d="M4.84412 3.39637C4.81695 3.30235 4.90298 3.36703 4.92374 3.34033C4.98335 3.35462 5.04297 3.36929 5.10259 3.38358C5.10296 3.40915 5.10372 3.43473 5.10447 3.4603C5.01769 3.43886 4.93091 3.41743 4.84412 3.39637Z" fill="#A46B74"/>
<path d="M5.3712 3.86828C5.39949 3.96831 5.54099 3.91416 5.5708 4.01231C5.47647 3.989 5.35459 4.01043 5.33459 3.86753C5.34705 3.85098 5.35912 3.85135 5.3712 3.86828Z" fill="#F7E4E4"/>
<path d="M5.37125 3.86834H5.35314L5.33503 3.86759C5.33918 3.81118 5.31164 3.73747 5.39804 3.7213C5.46596 3.70851 5.53313 3.71641 5.55652 3.80065C5.47804 3.77771 5.37691 3.69422 5.37163 3.86834H5.37125Z" fill="#F0CACB"/>
<path d="M5.52027 4.09995C5.34859 4.06159 5.38104 4.18118 5.38179 4.27633C5.30482 4.21879 5.31916 4.14658 5.36934 4.08942C5.41198 4.04053 5.47499 4.02774 5.52027 4.10032V4.09995Z" fill="#F7E4E4"/>
<path d="M5.7093 4.2425C5.64629 4.25717 5.60591 4.23273 5.58667 4.17218C5.66515 4.20151 5.67685 4.15751 5.67232 4.09546C5.73798 4.13119 5.71685 4.18835 5.7093 4.2425Z" fill="#F7E4E4"/>
<path d="M3.974 4.24058C3.98419 4.16462 3.95325 4.10633 3.89514 4.05969C4.02645 4.07474 4.04984 4.13641 3.974 4.24058Z" fill="#F2DADB"/>
<path d="M3.64038 4.39441C3.65321 4.39629 3.66604 4.39817 3.67886 4.40005C3.66528 4.45985 3.65132 4.51927 3.63774 4.57906C3.54906 4.51626 3.61962 4.45571 3.64038 4.39441Z" fill="#F6D6D5"/>
<path d="M3.71552 4.20557C3.6925 4.2695 3.64911 4.24431 3.60836 4.22926C3.60081 4.17925 3.58648 4.12772 3.6359 4.08899C3.64194 4.14164 3.6344 4.20332 3.71552 4.20595V4.20557Z" fill="#F2DADB"/>
<path d="M3.78381 3.97653C3.84796 3.95209 3.9121 3.92764 3.97625 3.9032C3.95172 4.02956 3.85475 3.96976 3.78381 3.97653Z" fill="#F2DADB"/>
<path d="M5.45916 3.89502C5.44784 3.87847 5.42822 3.86117 5.42444 3.84087C5.42029 3.81868 5.44331 3.81417 5.45765 3.8277C5.47425 3.84312 5.48557 3.86456 5.49915 3.88336C5.48859 3.88637 5.47765 3.88976 5.45916 3.89502Z" fill="#B82026"/>
<path d="M3.89737 4.19137C3.89058 4.23387 3.85963 4.25229 3.8219 4.25192C3.79058 4.25192 3.79021 4.22334 3.797 4.19927C3.80568 4.16843 3.82605 4.14662 3.85888 4.14323C3.89246 4.13985 3.89397 4.16693 3.89737 4.19099V4.19137Z" fill="#C73045"/>
<path d="M19.0365 4.90736C19.0052 4.80319 18.9976 4.68435 18.9029 4.6065C18.801 4.39214 18.655 4.21539 18.4516 4.08715C18.2981 3.92619 18.1041 3.82465 17.9045 3.73665C17.3231 3.47979 16.7114 3.31996 16.0888 3.19999C15.5775 3.10146 15.0685 2.99503 14.5893 2.78744C14.3131 2.66747 14.0732 2.50952 14.0366 2.16542C13.9958 1.7822 14.1826 1.53549 14.4946 1.35912C14.7923 1.19101 15.124 1.16017 15.4579 1.14852C15.9398 1.13159 16.4028 1.23652 16.8601 1.37228C17.211 1.51293 17.5525 1.67351 17.8879 1.84726C17.9483 1.87847 18.006 1.88374 18.0539 1.82244C18.1332 1.7209 18.2403 1.64192 18.2988 1.52346C18.4573 1.39785 18.555 1.21847 18.6977 1.08045C18.8222 0.959351 18.8086 0.890154 18.658 0.804785C18.0732 0.472713 17.4589 0.233155 16.8061 0.106795C16.5046 0.040982 16.0986 0.000366211 15.6519 0.000366211C15.027 0.000366211 14.4818 0.0793414 14.1909 0.196676C14.0196 0.239548 13.8524 0.296335 13.6932 0.385088C12.9544 0.730323 12.4759 1.26886 12.4382 2.11013C12.4178 2.55992 12.5069 2.98525 12.8691 3.30604C12.9838 3.48693 13.1517 3.60239 13.3445 3.68663C13.3811 3.69377 13.4155 3.70957 13.4494 3.72837C13.4143 3.71822 13.3793 3.70468 13.3445 3.68663C13.4777 3.80472 13.643 3.86639 13.8037 3.93258C14.4561 4.20072 15.147 4.32708 15.8334 4.46773C16.2764 4.55837 16.7156 4.66066 17.1148 4.88292C17.3476 5.01266 17.4959 5.19656 17.5117 5.47448C17.5321 5.83701 17.2797 6.17435 16.8522 6.3308C16.2545 6.54967 15.6406 6.50981 15.0319 6.40714C14.3671 6.29507 13.7687 6.007 13.2121 5.63657C13.0804 5.54894 12.9925 5.53916 12.8767 5.658C12.6503 5.89004 12.4114 6.11079 12.1745 6.33268C12.099 6.40338 12.0843 6.45452 12.1786 6.52297C12.5861 6.81856 13.0246 7.05286 13.5079 7.2014C13.6347 7.28076 13.7747 7.324 13.9215 7.34657C13.9494 7.35898 13.9766 7.37477 14.0056 7.3838C14.8112 7.63464 15.6402 7.63765 16.4707 7.60042C16.5907 7.59515 16.722 7.60305 16.8356 7.53761C17.0846 7.51994 17.32 7.45187 17.5472 7.35183C17.8524 7.25819 18.1313 7.11566 18.3732 6.90619C18.9516 6.52184 19.2512 5.62265 19.035 4.90736H19.0365ZM17.8781 4.7716C17.8773 4.76972 17.8766 4.76746 17.8758 4.76558C17.8773 4.76558 17.8789 4.76558 17.8807 4.76558C17.88 4.76784 17.8792 4.76934 17.8785 4.7716H17.8781ZM17.3529 4.16575C17.3529 4.16575 17.3529 4.16687 17.3529 4.16725C17.3514 4.16725 17.3498 4.16763 17.348 4.168C17.3495 4.16725 17.3514 4.1665 17.3529 4.16575ZM16.9993 7.02954C16.9857 7.02766 16.9721 7.02653 16.9586 7.02578C16.9691 7.01525 16.9842 7.01901 16.9993 7.02954Z" fill="white"/>
<path d="M9.30563 3.31356C9.25356 2.96306 9.14565 2.62948 8.9551 2.32599C8.88567 2.12893 8.75587 1.96835 8.63362 1.80363C8.13555 1.13196 7.47938 0.671274 6.69492 0.38433C6.35948 0.232773 6.0063 0.142892 5.64331 0.0876092C5.59615 0.0887374 5.5486 0.0902417 5.50144 0.0913699C5.38484 0.0778313 5.26146 0.0669252 5.13279 0.0586516C5.10864 0.0511301 5.08185 0.0526344 5.05582 0.0541387C4.91243 0.0466173 4.76339 0.0424805 4.6102 0.0424805C4.42795 0.0424805 4.25136 0.0481216 4.08383 0.0586516C4.04874 0.0541387 4.01364 0.0496258 3.98497 0.0654209C3.4337 0.107541 2.99185 0.20344 2.78017 0.326039C2.70395 0.351988 2.62697 0.377185 2.54962 0.399749C2.46963 0.445254 2.39001 0.490759 2.31002 0.535888C1.71083 0.778454 1.21653 1.15942 0.81053 1.65696C0.603001 1.89276 0.409433 2.1372 0.314347 2.44295C0.137005 2.79646 0.0260709 3.16689 0.00569536 3.56365C-0.038829 4.42749 0.175114 5.20972 0.738838 5.88326C0.775062 5.93328 0.812417 5.98255 0.847885 6.03332C0.944103 6.17096 1.03617 6.18939 1.17389 6.06603C1.42897 5.83776 1.69536 5.62076 1.96854 5.4143C2.10174 5.31351 2.12174 5.24018 2.01797 5.10141C1.81497 4.82988 1.68253 4.52752 1.62895 4.18492C1.55235 3.69452 1.63008 3.23534 1.8395 2.79195C1.87006 2.75321 1.90402 2.71673 1.93043 2.67574C2.2987 2.109 2.82167 1.73029 3.45067 1.50992C4.33626 1.19928 5.22637 1.21244 6.08969 1.59867C6.7734 1.90479 7.3243 2.35721 7.59597 3.0819C7.65068 3.34026 7.72615 3.59298 7.7137 3.86375C7.70464 4.06871 7.64049 4.2639 7.63295 4.46735C7.55597 4.71105 7.44391 4.93707 7.28204 5.13601C7.17752 5.26462 7.06243 5.38497 6.95225 5.50907C6.45343 5.90169 5.90178 6.17848 5.26599 6.27438C4.74528 6.35298 4.22985 6.31236 3.71631 6.21571C3.5201 6.13899 3.3205 6.06942 3.12844 5.9833C2.86356 5.86484 2.86582 5.85957 2.65603 6.06942C2.58622 6.08183 2.54094 6.12733 2.50283 6.18224C2.33077 6.33305 2.12966 6.44963 1.97609 6.62187C1.73611 6.77644 1.54292 6.98516 1.28219 7.18147C1.59725 7.21381 1.86478 7.20328 2.13079 7.18635C2.31078 7.17507 2.47567 7.20215 2.64358 7.26947C3.16504 7.47781 3.71103 7.6038 4.27023 7.63539C5.63426 7.71248 6.88396 7.38492 7.96273 6.52334C8.39628 6.17698 8.75851 5.76668 8.99434 5.25861C9.05358 5.22326 9.0649 5.16534 9.06829 5.10366C9.3494 4.53316 9.3977 3.93107 9.30563 3.31281V3.31356ZM2.69678 6.11229C2.69678 6.11417 2.69678 6.11568 2.6964 6.11756C2.69489 6.11568 2.69338 6.11417 2.69187 6.11229C2.69338 6.11229 2.69527 6.11229 2.69678 6.11229Z" fill="white"/>
<path d="M29.8811 0.122644C29.5612 0.118883 29.2412 0.107225 28.9216 0.105721C28.3186 0.102712 28.3186 0.104968 28.0847 0.665693C28.0824 0.670958 28.0847 0.678103 28.0847 0.68412C27.9734 0.858994 27.893 1.04778 27.8236 1.24221L27.7526 1.34789C27.0629 2.77659 26.3743 4.20566 25.6853 5.63474C25.6721 5.66182 25.6672 5.69829 25.6509 5.72312L25.5449 5.73064C25.5423 5.72462 25.5185 5.65053 25.5155 5.64489C25.5155 5.64414 25.5147 5.64339 25.5143 5.64301L25.3483 5.29477C25.3389 5.27446 25.3295 5.25415 25.3196 5.23422L24.2609 3.01163C24.2243 2.93341 24.1873 2.85519 24.1496 2.77772L23.2791 0.949627C23.2504 0.867267 23.2108 0.790173 23.1674 0.714582L22.9934 0.349039C22.9376 0.192217 22.8451 0.109857 22.652 0.107977C22.2086 0.10384 21.766 0.0899255 21.323 0.117755C21.111 0.130917 21.1087 0.134678 21.2294 0.325723C21.4102 0.700667 21.5853 1.07824 21.7732 1.44943C22.172 2.23805 22.5799 3.02216 22.9791 3.81079C23.1979 4.24327 23.4013 4.68328 23.6447 5.10335C23.653 5.14848 23.6711 5.18872 23.7077 5.21843C23.8628 5.59149 24.0522 5.94763 24.2465 6.30152C24.4133 6.70993 24.6374 7.09089 24.8265 7.48878C24.8623 7.56437 24.9129 7.58091 24.9891 7.58054C25.377 7.57828 25.7653 7.57753 26.1535 7.58091C26.2316 7.58167 26.283 7.56023 26.3169 7.48802C26.452 7.20221 26.6222 6.93369 26.7354 6.63735C26.7614 6.59598 26.7908 6.55649 26.8131 6.51324C27.227 5.70394 27.6409 4.89463 28.0526 4.08419C28.4303 3.3407 28.8137 2.59946 29.1789 1.84957C29.3721 1.45281 29.611 1.07712 29.7536 0.656667C29.7502 0.654786 29.7464 0.652906 29.743 0.651026C29.7434 0.651026 29.7438 0.650274 29.7445 0.649898L29.7536 0.656667C29.8608 0.545725 29.8872 0.391536 29.9679 0.266304C30.0332 0.164764 29.9955 0.123772 29.8807 0.122268L29.8811 0.122644ZM23.9492 5.62571C23.9492 5.62571 23.9473 5.6227 23.9462 5.6212C23.9477 5.62195 23.9492 5.62308 23.9507 5.62383C23.9503 5.62458 23.95 5.62534 23.9492 5.62609V5.62571ZM27.8817 2.08236C27.8858 2.07747 27.8896 2.0722 27.8926 2.06731C27.8956 2.07032 27.8994 2.07296 27.9028 2.07596C27.9043 2.08048 27.9051 2.08461 27.9066 2.08913C27.8983 2.08762 27.89 2.08537 27.8821 2.08273L27.8817 2.08236Z" fill="white"/>
</g>
<defs>
<clipPath id="clip0_989_41">
<rect width="30" height="7.64706" fill="white"/>
</clipPath>
</defs>
</svg>